<?xml version="1.0" encoding="UTF-8"?> <svg xmlns="http://www.w3.org/2000/svg" viewBox="0 0 420 166"><defs><style>.cls-1{fill:#840200;}.cls-2{fill:#af402a;}.cls-3{fill:#212121;}</style></defs><title>Artboard 1@2x</title><g id="Layer_4" data-name="Layer 4"><polygon class="cls-1" points="62.94 127.85 51.42 102.89 50 99.81 42.78 84.15 35.51 91.4 32.33 94.57 29.05 97.84 29.05 127.85 0 127.85 0 127.94 98.49 127.94 98.35 127.85 62.94 127.85"></polygon><path class="cls-1" d="M0,0V20.62H28.83V60S84.7,16.63,114.94,7l19.57-7"></path><polygon class="cls-1" points="296.99 90.63 285.84 127.94 308.22 127.94 297.14 90.63 296.99 90.63"></polygon><path class="cls-1" d="M364.5,126.5l2-.74c.6-.2.75-.47.75-.88a5.77,5.77,0,0,0-.3-1.08L363.67,115H344.86l-3.17,8.29a5.64,5.64,0,0,0-.37,1.42,1,1,0,0,0,.68.94l2.55.81c1.21.34,1.58.74,1.58,1.28a.9.9,0,0,1,0,.16h16.31s0-.06,0-.09C362.39,127.31,362.84,127.11,364.5,126.5Z"></path><polygon class="cls-1" points="354.34 90.23 346.74 110.18 361.79 110.18 354.49 90.23 354.34 90.23"></polygon><path class="cls-1" d="M132.56,126.5l1-.2c1-.2,1.28-.47,1.28-.88a2.48,2.48,0,0,0-.67-1.21l-16.71-20.3h-.15v20c0,1.21.52,1.62,1.13,1.75l3.16.81c1,.27,1.58.54,1.58,1.15a1.35,1.35,0,0,1,0,.29h7.64C130.8,127.22,131.53,126.7,132.56,126.5Z"></path><path class="cls-1" d="M215,91v33.38a1.17,1.17,0,0,0,.9,1.28l2.86.81c1.05.27,1.5.61,1.5,1.42v0h23.84L215.12,91Z"></path><path class="cls-1" d="M391.81,126.5l2.64-.81c.6-.2.9-.54.9-1.75V109.1L383.46,86.59c-1-1.83-1.43-2.23-2-2.43l-2.26-.81c-1.5-.54-2.26-.68-2.26-1.35s.76-1.08,1.51-1.08H393c.83,0,1.5.41,1.5,1s-.3.95-1.73,1.42l-1.35.47c-.68.34-.75.67-.75.94a4,4,0,0,0,.45,1.22l8.8,17,8.28-16.38a6.29,6.29,0,0,0,.83-2c0-.47-.53-.88-1.43-1.08l-.9-.2c-1.36-.27-2-.74-2-1.42s.37-1,1.43-1h13.32a3.37,3.37,0,0,1,.49,0V0S130.72,10.91,65.13,66.82a6.46,6.46,0,0,0-1.21,1.41l34.57,59.71h5.74a1.35,1.35,0,0,1,0-.29c0-.61.6-.88,1.58-1.15l3.16-.81c.61-.13,1.13-.54,1.13-1.75v-38c0-1.21-.52-1.62-1.13-1.75l-3.16-.81c-1-.27-1.58-.54-1.58-1.15,0-.94,1-1.28,2.11-1.28h14.75c1.13,0,2.11.34,2.11,1.28,0,.61-.6.88-1.58,1.15l-3.16.81c-.61.13-1.13.54-1.13,1.75v17.87h.15l15.2-17.73a1.86,1.86,0,0,0,.6-1.22,1.07,1.07,0,0,0-1-1.08l-1.8-.4c-.91-.2-1.43-.74-1.43-1.28s.45-1.15,1.43-1.15h13.77c1,0,1.65.27,1.65,1.08,0,.61-.37,1.08-1.5,1.35l-3.24.81a3.16,3.16,0,0,0-1.28.94L125,102.3,143.85,125a3.89,3.89,0,0,0,1.58.74l2.71.81c1.21.34,1.81.67,1.81,1.35,0,0,0,.06,0,.09h7.19a1.36,1.36,0,0,1,0-.29c0-.61.6-.88,1.58-1.15l3.16-.81c.6-.13,1.13-.54,1.13-1.75v-38c0-1.21-.53-1.62-1.13-1.75l-3.16-.81c-1-.27-1.58-.54-1.58-1.15,0-.94,1-1.28,2.1-1.28h32.44l.75,6.61a11,11,0,0,1,.08,1.62,1.7,1.7,0,0,1-1.66,1.68,1.84,1.84,0,0,1-1.65-1.28l-1.89-3.71a1.62,1.62,0,0,0-1.58-.87h-15.5v17.39h13c1.13,0,1.88-.27,2.18-1.28l.83-2.56a1.44,1.44,0,0,1,1.51-1.15c1.2,0,1.65.27,1.65,1.42V110c0,1.15-.45,1.42-1.65,1.42a1.44,1.44,0,0,1-1.51-1.15l-.83-2.56c-.3-1-1-1.28-2.18-1.28h-13v17c0,.94.6,1.48,1.66,1.48h13.69a2.67,2.67,0,0,0,2-1.08l3.84-5.12a2.34,2.34,0,0,1,1.95-1.08,1.59,1.59,0,0,1,1.43,1.35,9.78,9.78,0,0,1-.45,2.22l-1.84,6.77h11.26c0-.58.36-1.19,1.42-1.44l3.31-.81a1.44,1.44,0,0,0,1.13-1.41V85.57a1.44,1.44,0,0,0-1.13-1.41l-3.31-.81c-1.13-.27-1.43-.95-1.43-1.55s.6-.88,1.43-.88H215l28.9,37.15H244V85.44a1.17,1.17,0,0,0-.91-1.28l-2.86-.81c-1.05-.27-1.5-.61-1.5-1.42,0-.54.37-1,1.28-1h13.85c.82,0,1.42.34,1.42.88s-.3,1.28-1.42,1.55l-3.32.81a1.43,1.43,0,0,0-1.12,1.41v42.37H280.8l-13.38-42.1a2.39,2.39,0,0,0-1.58-1.68l-2.41-.81c-1.51-.47-2-.88-2-1.35,0-.74.53-1.08,1.28-1.08H278.1c1,0,1.43.47,1.43,1,0,.74-.37,1-1.65,1.48l-2.33.81a1,1,0,0,0-.76.87,4.48,4.48,0,0,0,.3,1.49l9,31.49h.22l9-32a8.6,8.6,0,0,0,.23-1.29c0-.27-.23-.47-.6-.6l-1.89-.81c-1.12-.47-1.58-.95-1.58-1.48s.53-1,1.51-1h13.77c1,0,1.51.47,1.51,1s-.46,1-1.58,1.48l-1.89.81a.8.8,0,0,0-.6.74,7.52,7.52,0,0,0,.3,1.15l9,32h.15l9.11-31.42a6.94,6.94,0,0,0,.3-1.56.82.82,0,0,0-.68-.87l-2.55-.81c-1.13-.34-1.66-.68-1.66-1.28a1.31,1.31,0,0,1,1.43-1.15h13.55c.75,0,1.28.34,1.28,1.08,0,.47-.46.88-2,1.35l-2.41.81a2.39,2.39,0,0,0-1.58,1.68l-13.31,42.1h16.49a.29.29,0,0,1,0-.09c0-.54.37-.95,1.8-1.35l2.94-.81c.38-.07,1-.74,1.58-2.49l16.63-42.28h5.19l16.94,43.56a1.75,1.75,0,0,0,1.13,1.21l2.71.81c1.2.34,1.8.67,1.8,1.35,0,0,0,.06,0,.09h9.65v0C390.08,127.11,390.84,126.84,391.81,126.5Z"></path><path class="cls-1" d="M417.85,83.55a3.3,3.3,0,0,0-2.78,1.82L402.58,109.1v14.84c0,1.21.3,1.55.9,1.75l2.63.81c1,.34,1.73.61,1.73,1.42v0H420V83.07a6.32,6.32,0,0,1-1.09.28Z"></path><path class="cls-2" d="M65.13,66.82C130.72,10.91,420,0,420,0H127.88L108.13,9.58h0C77,22.58,28.83,60,28.83,60V20.62H4.74L0,20.64V127.85H29.05v-30l3.28-3.27,3.18-3.17,7.27-7.25L50,99.81l1.42,3.08,11.52,25H98.35l.14.09L63.92,68.23A6.46,6.46,0,0,1,65.13,66.82Z"></path><path class="cls-3" d="M0,153.75c0-1.38,0-2.75,0-4.13a10.43,10.43,0,0,1,.13-1.24A7.71,7.71,0,0,1,1,146a7.87,7.87,0,0,1,1-1.47,9.34,9.34,0,0,1,1.41-1.33,7.72,7.72,0,0,1,2.06-1.15,9.11,9.11,0,0,1,1.85-.46,8,8,0,0,1,1.69,0,7.54,7.54,0,0,1,1.69.33,12.39,12.39,0,0,1,2.59,1.19,6.23,6.23,0,0,1,1.26.89,2.93,2.93,0,0,1,.56.66.92.92,0,0,1-.1,1.24,2.81,2.81,0,0,1-1,.74.54.54,0,0,1-.48,0,3.23,3.23,0,0,1-.49-.33c-.37-.33-.73-.67-1.11-1a4.48,4.48,0,0,0-1.34-.85,5.42,5.42,0,0,0-1.26-.32,7.16,7.16,0,0,0-1.39,0,5.77,5.77,0,0,0-1.87.46,5.78,5.78,0,0,0-1.37.87,6.51,6.51,0,0,0-1.28,1.44,5.53,5.53,0,0,0-.56,1.21,6.13,6.13,0,0,0-.29,1.9v7.61a6,6,0,0,0,.54,2.53,5.59,5.59,0,0,0,.8,1.24,6.24,6.24,0,0,0,1.29,1.17,5.43,5.43,0,0,0,1.71.79,6.64,6.64,0,0,0,2.13.17,5.68,5.68,0,0,0,1.33-.3,5.26,5.26,0,0,0,1.72-1l.77-.65a5.48,5.48,0,0,1,.49-.35.64.64,0,0,1,.6,0,1.85,1.85,0,0,1,.91.67,1.4,1.4,0,0,1,.29.6.69.69,0,0,1-.19.61,9.69,9.69,0,0,1-2.46,2,8.06,8.06,0,0,1-2,.77A8.54,8.54,0,0,1,8,166c-.37,0-.75-.08-1.13-.13a6.56,6.56,0,0,1-1.68-.47A7.94,7.94,0,0,1,3,164a10.53,10.53,0,0,1-1.3-1.37,8,8,0,0,1-1-1.69,7.72,7.72,0,0,1-.48-1.55A9.9,9.9,0,0,1,0,157.49v-3.74Z"></path><path class="cls-3" d="M61,153.76c0,1.37,0,2.75,0,4.12a7.48,7.48,0,0,1-.17,1.49,8.06,8.06,0,0,1-.78,2.19,9.1,9.1,0,0,1-1.66,2.15,8.19,8.19,0,0,1-3,1.84,9.13,9.13,0,0,1-1.46.35,9.35,9.35,0,0,1-2.24.06,8.08,8.08,0,0,1-3.28-1A9.06,9.06,0,0,1,46,162.72a7.91,7.91,0,0,1-1.28-2.33,7.2,7.2,0,0,1-.35-1.44,11.3,11.3,0,0,1-.11-1.74c0-2.37,0-4.74,0-7.11a9.48,9.48,0,0,1,0-1.07,8,8,0,0,1,1.83-4.4,9.14,9.14,0,0,1,2.45-2.06,7.85,7.85,0,0,1,1.8-.74,8.58,8.58,0,0,1,3.07-.27,7.87,7.87,0,0,1,3.53,1.11,8.88,8.88,0,0,1,1.89,1.56,8.2,8.2,0,0,1,1.59,2.45,7.36,7.36,0,0,1,.45,1.47,9.83,9.83,0,0,1,.18,1.95c0,1.22,0,2.44,0,3.66Zm-2.52,0c0-1.22,0-2.43,0-3.65a7,7,0,0,0-.15-1.58,5.92,5.92,0,0,0-.41-1.16,6,6,0,0,0-1.48-1.91,5.58,5.58,0,0,0-3.09-1.37,6,6,0,0,0-2.63.25,4.76,4.76,0,0,0-1.19.55A6.41,6.41,0,0,0,48,146.35a5.45,5.45,0,0,0-1.09,2.38,6.68,6.68,0,0,0-.12,1.34q0,3.6,0,7.2a7.24,7.24,0,0,0,.18,1.8,5.92,5.92,0,0,0,.4,1.09,5.26,5.26,0,0,0,.87,1.28,5.92,5.92,0,0,0,1.69,1.38,5.52,5.52,0,0,0,2,.62,6.1,6.1,0,0,0,1.86-.06,5.12,5.12,0,0,0,1.58-.55,6,6,0,0,0,1.72-1.37,5.57,5.57,0,0,0,1.43-3.35c0-.33,0-.67,0-1C58.53,156,58.52,154.87,58.52,153.76Z"></path><path class="cls-3" d="M95.25,146.46c0,.1,0,.19,0,.29,0,.71.1,1.43.17,2.14a26.79,26.79,0,0,1,.09,3v13.33a.6.6,0,0,1-.23.54,1.92,1.92,0,0,1-.45.18,3.55,3.55,0,0,1-1.3.05,1.12,1.12,0,0,1-.35-.12.35.35,0,0,1-.19-.32V142.38a.58.58,0,0,1,0-.23.42.42,0,0,1,.37-.28l.31,0c.31,0,.63,0,1,0a.69.69,0,0,1,.56.35l2.93,4.72,3.59,5.81c.85,1.37,1.68,2.74,2.54,4.1.67,1,1.21,2.14,1.78,3.23l.65,1.24a.27.27,0,0,0,.07.08c0-.14,0-.29,0-.43,0-.44-.09-.87-.13-1.31s-.09-.83-.13-1.25c0-.15,0-.3,0-.46V142.42a.7.7,0,0,1,0-.29.45.45,0,0,1,.36-.26l.15,0,1.5,0a.47.47,0,0,1,.44.31.19.19,0,0,1,0,.08.76.76,0,0,1,0,.15v23a.71.71,0,0,1,0,.21.43.43,0,0,1-.37.29.58.58,0,0,1-.14,0c-.38,0-.75,0-1.13,0a.62.62,0,0,1-.5-.34l-1.08-1.72-2.37-3.79c-.69-1.11-1.38-2.21-2.06-3.32q-1.36-2.18-2.72-4.35c-.47-.74-.94-1.48-1.39-2.23-.23-.37-.4-.77-.6-1.15l-1.27-2.51,0-.07Z"></path><path class="cls-3" d="M145.62,166h-1.76a6.55,6.55,0,0,1-1.47-.15,6.25,6.25,0,0,1-1.92-.8,7.35,7.35,0,0,1-1.41-1.2.84.84,0,0,1-.08-1.1,2.09,2.09,0,0,1,.92-.82,2.63,2.63,0,0,1,.3-.09.38.38,0,0,1,.32.08c.33.23.66.45,1,.69a4.45,4.45,0,0,0,1.5.77,3.58,3.58,0,0,0,.87.11H147a4.48,4.48,0,0,0,1.21-.17,3.11,3.11,0,0,0,1.29-.75,3.89,3.89,0,0,0,1-1.51,4.29,4.29,0,0,0,.25-1.17,5,5,0,0,0-.05-1.1,4.4,4.4,0,0,0-.46-1.38,5.51,5.51,0,0,0-1.46-1.79,3,3,0,0,0-1.19-.58,8,8,0,0,0-1-.14c-.46-.06-.92-.09-1.38-.14s-.65-.06-1-.11a7.67,7.67,0,0,1-2.09-.64,7.15,7.15,0,0,1-1.77-1.14,5.19,5.19,0,0,1-1.38-1.93,5,5,0,0,1-.34-1.83,11.47,11.47,0,0,1,.07-1.66,6.58,6.58,0,0,1,.78-2.4,6,6,0,0,1,1.93-2.18,5.6,5.6,0,0,1,1.65-.75,6.81,6.81,0,0,1,1.74-.23c.86,0,1.72,0,2.58,0a5.45,5.45,0,0,1,2.24.56,6.84,6.84,0,0,1,2,1.48,5.34,5.34,0,0,1,.39.44.66.66,0,0,1,.1.65,1.64,1.64,0,0,1-.6.8,1.6,1.6,0,0,1-.74.36.4.4,0,0,1-.32-.07l-1-.76a4.38,4.38,0,0,0-1.51-.83,3.4,3.4,0,0,0-.95-.13h-2.09a4,4,0,0,0-1.56.3,2.82,2.82,0,0,0-.74.45,4.1,4.1,0,0,0-1.2,1.83,4.25,4.25,0,0,0-.23,1.23,5.3,5.3,0,0,0,0,.69,3.13,3.13,0,0,0,.68,1.78,4,4,0,0,0,1.57,1.17,4.48,4.48,0,0,0,1.48.37c.67.05,1.34.1,2,.17a9,9,0,0,1,1.16.17,5.48,5.48,0,0,1,1.34.47,6.29,6.29,0,0,1,2,1.58,7.8,7.8,0,0,1,1.06,1.6,6.86,6.86,0,0,1,.56,1.51,8.67,8.67,0,0,1,.23,2.38,5.88,5.88,0,0,1-1.38,3.58,6.43,6.43,0,0,1-2.16,1.72,5.38,5.38,0,0,1-1.35.46,7.3,7.3,0,0,1-1.54.14Z"></path><path class="cls-3" d="M200.23,150.28v7.24a10.13,10.13,0,0,1-.09,1.46,8.21,8.21,0,0,1-6.72,6.88,9.61,9.61,0,0,1-2.51.1,8.14,8.14,0,0,1-2.19-.52,8,8,0,0,1-2.38-1.46,8.61,8.61,0,0,1-1.26-1.3,7.82,7.82,0,0,1-1.15-2.05,8.47,8.47,0,0,1-.45-1.8,9.79,9.79,0,0,1-.08-1.33V142.29a.92.92,0,0,1,0-.29.42.42,0,0,1,.36-.27,1,1,0,0,1,.24,0l1.42,0a.46.46,0,0,1,.44.31.19.19,0,0,1,0,.08v15.41a6.29,6.29,0,0,0,.12,1.3,5.12,5.12,0,0,0,.72,1.8,6.28,6.28,0,0,0,2.8,2.42,5.57,5.57,0,0,0,1.52.39,6.67,6.67,0,0,0,1.34,0,5.52,5.52,0,0,0,2.16-.65,6.2,6.2,0,0,0,2.31-2.21,5,5,0,0,0,.63-1.52,6.38,6.38,0,0,0,.17-1.56q0-7.62,0-15.24a.75.75,0,0,1,.06-.33.43.43,0,0,1,.37-.22,1.51,1.51,0,0,1,.3,0c.4,0,.8,0,1.19,0a1.8,1.8,0,0,1,.39.08.34.34,0,0,1,.21.31,1.28,1.28,0,0,1,0,.19Z"></path><path class="cls-3" d="M231.7,154V142.4a.75.75,0,0,1,0-.21.42.42,0,0,1,.36-.28l.18,0,1.5,0a.46.46,0,0,1,.4.21.44.44,0,0,1,.05.15,1.09,1.09,0,0,1,0,.18v20.86c0,.19,0,.17.17.17h10.33c.39,0,.52.12.55.5a6.57,6.57,0,0,1,0,.77c0,.26,0,.53,0,.79a.45.45,0,0,1-.17.37,1.45,1.45,0,0,1-.22.09H232.24a.59.59,0,0,1-.37-.08.4.4,0,0,1-.17-.28V154Z"></path><path class="cls-3" d="M278.83,155V144.5c0-.15,0-.14-.13-.14H273a.48.48,0,0,1-.55-.46,1.23,1.23,0,0,1,0-.19c0-.42,0-.84,0-1.26a.71.71,0,0,1,.15-.46.38.38,0,0,1,.23-.13h14.42c.35,0,.56.06.59.51a7.68,7.68,0,0,1,0,1.59.42.42,0,0,1-.28.39.65.65,0,0,1-.2,0h-5.84c-.08,0-.11,0-.1.1v20.67a.67.67,0,0,1-.57.75,3.29,3.29,0,0,1-1.43.08,1.13,1.13,0,0,1-.36-.14.37.37,0,0,1-.18-.34V155Z"></path><path class="cls-3" d="M317.14,153.87V142.41a.86.86,0,0,1,0-.23.44.44,0,0,1,.37-.31l.17,0,1.49,0a.45.45,0,0,1,.47.49v22.8a.58.58,0,0,1-.27.57,1.66,1.66,0,0,1-.48.19,3.05,3.05,0,0,1-1,.07,1.16,1.16,0,0,1-.57-.15.45.45,0,0,1-.2-.36V153.87Z"></path><path class="cls-3" d="M365.83,161.4c0-.14,0-.29,0-.43-.05-.44-.09-.87-.14-1.31s-.08-.83-.13-1.25c0-.15,0-.3,0-.45V142.42a.92.92,0,0,1,0-.29.45.45,0,0,1,.36-.26l.15,0,1.51,0a.5.5,0,0,1,.44.3.36.36,0,0,1,0,.1v23.15a.71.71,0,0,1,0,.21.42.42,0,0,1-.36.29l-.31,0h-.84a.71.71,0,0,1-.63-.36l-2.11-3.38L361,157.86q-1.27-2-2.54-4.07c-.75-1.19-1.5-2.39-2.24-3.59-.2-.32-.35-.67-.52-1l-1.35-2.67s0-.05-.07-.07v.09c.05.7.12,1.39.17,2.09s.11,1.24.1,1.86v14.69a.6.6,0,0,1-.23.54,1.63,1.63,0,0,1-.45.18,3.5,3.5,0,0,1-1.29.05,1.12,1.12,0,0,1-.35-.12.36.36,0,0,1-.2-.32V142.38a.86.86,0,0,1,0-.23.44.44,0,0,1,.37-.28l.31,0c.32,0,.64,0,.95,0a.71.71,0,0,1,.57.35l2.82,4.55,3.12,5,2.52,4.09c.41.65.82,1.29,1.2,1.95.23.38.42.79.63,1.18l1.19,2.28.06.1Z"></path><path class="cls-3" d="M415.55,159.35c0,2,0,3.91,0,5.86a1.2,1.2,0,0,1-.07.42.51.51,0,0,1-.46.33,3.43,3.43,0,0,1-.56,0,.65.65,0,0,1-.45-.25,2.23,2.23,0,0,1-.36-.61c-.09-.19-.18-.37-.28-.56s-.09-.1-.17-.05l-.41.26a5.3,5.3,0,0,1-1.57.71,10.34,10.34,0,0,1-2,.33,11,11,0,0,1-1.72,0,9.42,9.42,0,0,1-1.75-.3,8.69,8.69,0,0,1-2.56-1.2,8.55,8.55,0,0,1-2-1.88A8.92,8.92,0,0,1,400,160.3a7.36,7.36,0,0,1-.46-1.73,2.53,2.53,0,0,1,0-.28v-9a4.36,4.36,0,0,1,.2-1.18,9.5,9.5,0,0,1,1.07-2.42,10,10,0,0,1,.94-1.21,8.57,8.57,0,0,1,1.84-1.5,8.42,8.42,0,0,1,1.66-.79,8.55,8.55,0,0,1,1.41-.35,8.11,8.11,0,0,1,2,0,8.78,8.78,0,0,1,2.14.51,12,12,0,0,1,3.1,1.78,2.46,2.46,0,0,1,.64.72,1.48,1.48,0,0,1,.12.29.74.74,0,0,1-.15.69,2.74,2.74,0,0,1-.87.79.68.68,0,0,1-.53.14.75.75,0,0,1-.31-.15c-.28-.22-.55-.46-.82-.68a7.5,7.5,0,0,0-1.9-1.19,5.35,5.35,0,0,0-3.17-.33,5.39,5.39,0,0,0-2.47,1.11,6.19,6.19,0,0,0-1.88,2.42,4.65,4.65,0,0,0-.38,1.37,11.09,11.09,0,0,0-.07,1.15v7a6.53,6.53,0,0,0,.11,1.25,5,5,0,0,0,1,2.14,6.73,6.73,0,0,0,1.71,1.57,6,6,0,0,0,1.81.78,7.28,7.28,0,0,0,2,.19,9.18,9.18,0,0,0,2.79-.57,4,4,0,0,0,1-.55,1.25,1.25,0,0,0,.54-1v-5.51c0-.14,0-.14-.13-.14h-4.06a.51.51,0,0,1-.56-.48,3.7,3.7,0,0,1,0-1.24,1.5,1.5,0,0,1,.15-.51A.54.54,0,0,1,409,153h6.11a.41.41,0,0,1,.4.16.78.78,0,0,1,.07.3c0,.69,0,1.39,0,2.09Z"></path></g></svg> 